<?xml version="1.0" encoding="utf-8"?>
<!-- Generator: Adobe Illustrator 19.1.0, SVG Export Plug-In . SVG Version: 6.00 Build 0)  -->
<svg version="1.1" id="Layer_1" xmlns="http://www.w3.org/2000/svg" xmlns:xlink="http://www.w3.org/1999/xlink" x="0px" y="0px"
	 viewBox="0 0 60 60" style="enable-background:new 0 0 60 60;" xml:space="preserve">
<style type="text/css">
	.st0{fill:#00A7CE;}
</style>
<g>
	<g>
		<path class="st0" d="M30.4,52.4C18,52.4,7.9,42.4,7.9,30S18,7.6,30.4,7.6S52.9,17.6,52.9,30S42.9,52.4,30.4,52.4z M30.4,10.1
			c-11,0-19.9,8.9-19.9,19.9s8.9,19.9,19.9,19.9S50.4,41,50.4,30S41.4,10.1,30.4,10.1z"/>
	</g>
	<rect x="19" y="20.3" class="st0" width="3.3" height="2.3"/>
	<rect x="19" y="28" class="st0" width="3.3" height="2.3"/>
	<rect x="19" y="35.7" class="st0" width="3.3" height="2.3"/>
	<rect x="24.3" y="20.3" class="st0" width="18.4" height="2.3"/>
	<rect x="24.3" y="28" class="st0" width="18.4" height="2.3"/>
	<rect x="24.3" y="35.7" class="st0" width="18.4" height="2.3"/>
</g>
</svg>
